<svg version="1.1" class="target" xmlns="http://www.w3.org/2000/svg" xmlns:xlink="http://www.w3.org/1999/xlink" x="0px" y="0px"
	viewBox="0 0 152.65 152.65" xml:space="preserve" preserveAspectRatio="xMidYMid meet">
<g class="circles">
	<path id="background" d="M76.33,1.75c-41.19,0-74.58,33.39-74.58,74.58s33.39,74.58,74.58,74.58
		s74.58-33.39,74.58-74.58S117.51,1.75,76.33,1.75z"/>
	<path id="ring1" d="M76.33,0C34.17,0,0,34.17,0,76.33s34.17,76.33,76.33,76.33s76.33-34.17,76.33-76.33S118.48,0,76.33,0z
		 M76.33,145.65C38.04,145.65,7,114.62,7,76.33S38.04,7,76.33,7s69.33,31.04,69.33,69.33S114.61,145.65,76.33,145.65z"/>
	<path id="ring2" d="M76.33,13C41.35,13,13,41.35,13,76.33s28.35,63.33,63.33,63.33s63.33-28.35,63.33-63.33S111.3,13,76.33,13z
		 M76.33,130.65c-30,0-54.33-24.32-54.33-54.33S46.32,22,76.33,22s54.33,24.32,54.33,54.33S106.33,130.65,76.33,130.65z"/>
	<path id="ring3" d="M76.33,27.77c-26.82,0-48.56,21.74-48.56,48.56s21.74,48.56,48.56,48.56c26.82,0,48.56-21.74,48.56-48.56
		S103.14,27.77,76.33,27.77z M76.33,114.12c-20.87,0-37.79-16.92-37.79-37.79s16.92-37.79,37.79-37.79
		c20.87,0,37.79,16.92,37.79,37.79S97.2,114.12,76.33,114.12z"/>
	<path id="ring4" d="M76.33,43.47c-18.15,0-32.86,14.71-32.86,32.86s14.71,32.86,32.86,32.86c18.15,0,32.86-14.71,32.86-32.86
		S94.48,43.47,76.33,43.47z M76.33,99.2c-12.63,0-22.87-10.24-22.87-22.87s10.24-22.87,22.87-22.87c12.63,0,22.87,10.24,22.87,22.87
		S88.96,99.2,76.33,99.2z"/>
	<circle id="center" cx="76.33" cy="76.33" r="17.13"/>
</g>
</svg>
